<svg xmlns="http://www.w3.org/2000/svg" width="15.945" height="18.079" viewBox="0 0 15.945 18.079">
  <g id="_048-avatar" data-name="048-avatar" transform="translate(-35.573 -1.5)">
    <path id="Icon_awesome-lock" data-name="Icon awesome-lock" d="M13.343,7.472h-.8V5.07A5.07,5.07,0,0,0,2.4,5.07v2.4H1.6A1.6,1.6,0,0,0,0,9.073v6.4a1.6,1.6,0,0,0,1.6,1.6H13.343a1.6,1.6,0,0,0,1.6-1.6v-6.4A1.6,1.6,0,0,0,13.343,7.472Zm-3.469,0H5.07V5.07a2.4,2.4,0,0,1,4.8,0Z" transform="translate(36.073 2)" fill="none" stroke="#fff" stroke-width="1"/>
  </g>
</svg>
