<svg xmlns="http://www.w3.org/2000/svg" width="15.245" height="17.922" viewBox="0 0 15.245 17.922">
  <g id="_048-avatar" data-name="048-avatar" transform="translate(-36.073)">
    <g id="Group_2" data-name="Group 2" transform="translate(36.073)">
      <path id="Path_4" data-name="Path 4" d="M140.89,9.657h.119a3.425,3.425,0,0,0,2.617-1.132c1.429-1.611,1.191-4.372,1.165-4.636a3.786,3.786,0,0,0-1.8-3.366,4.126,4.126,0,0,0-2-.523h-.063a4.133,4.133,0,0,0-2,.508,3.789,3.789,0,0,0-1.822,3.381c-.026.264-.264,3.025,1.165,4.636A3.411,3.411,0,0,0,140.89,9.657ZM138.1,3.982c0-.011,0-.022,0-.03.122-2.661,2.012-2.947,2.821-2.947h.045c1,.022,2.706.431,2.821,2.947a.072.072,0,0,0,0,.03c0,.026.264,2.55-.917,3.878a2.433,2.433,0,0,1-1.911.794h-.037a2.425,2.425,0,0,1-1.908-.794C137.847,6.54,138.1,4,138.1,3.982Z" transform="translate(-133.333)" fill="#eae9ef"/>
      <path id="Path_5" data-name="Path 5" d="M51.317,263.859v-.011c0-.03,0-.059,0-.093-.022-.735-.071-2.453-1.681-3l-.037-.011a10.709,10.709,0,0,1-3.08-1.4.5.5,0,0,0-.575.82,11.559,11.559,0,0,0,3.389,1.548c.865.308.961,1.232.987,2.078a.745.745,0,0,0,0,.093,6.737,6.737,0,0,1-.078,1.147,13.659,13.659,0,0,1-6.543,1.522,13.738,13.738,0,0,1-6.547-1.525,6.378,6.378,0,0,1-.078-1.147c0-.03,0-.059,0-.093.026-.846.122-1.77.987-2.078a11.667,11.667,0,0,0,3.389-1.548.5.5,0,1,0-.575-.82,10.591,10.591,0,0,1-3.08,1.4l-.037.011c-1.611.553-1.659,2.271-1.681,3a.746.746,0,0,1,0,.093v.011a5.691,5.691,0,0,0,.189,1.681.476.476,0,0,0,.193.234,14.038,14.038,0,0,0,7.245,1.774,14.081,14.081,0,0,0,7.245-1.774.5.5,0,0,0,.193-.234A5.971,5.971,0,0,0,51.317,263.859Z" transform="translate(-36.073 -249.623)" fill="#eae9ef"/>
    </g>
  </g>
</svg>
